<svg height="512pt" viewBox="-100 -122 712 712" width="512pt" xmlns="http://www.w3.org/2000/svg"><path d="m363.445312 452.335938v-74.667969h-107.445312l-10.667969 43.160156 10.667969 31.507813zm0 0" fill="#8d9ca8"/><path d="m148.554688 377.667969h107.445312v74.667969h-107.445312zm0 0" fill="#b6c4cf"/><path d="m437 0h-181l-10.667969 140.648438 10.667969 162.351562 256-25.667969v-202.332031c0-41.355469-33.644531-75-75-75zm0 0" fill="#3b4a51"/><path d="m75 0c-41.355469 0-75 33.644531-75 75v202.332031l256 25.667969v-303zm0 0" fill="#465a61"/><path d="m447.40625 214.820312h-44.703125c-2.699219-8.550781-6.152344-16.859374-10.308594-24.824218l31.628907-31.628906-65.355469-65.351563-31.628907 31.625c-7.964843-4.15625-16.273437-7.609375-24.824218-10.3125v-44.699219h-46.214844l-21.332031 52.039063 21.332031 55.820312c15.582031 0 30.179688 4.296875 42.667969 11.773438 24.335937 14.5625 40.664062 41.191406 40.664062 71.558593 0 13.890626-3.433593 26.984376-9.46875 38.511719h117.542969zm0 0" fill="#fdbf00"/><path d="m256 177.488281v-107.859375h-46.214844v44.699219c-8.550781 2.703125-16.859375 6.15625-24.824218 10.3125l-31.628907-31.625-65.355469 65.351563 31.628907 31.628906c-4.15625 7.964844-7.609375 16.273437-10.308594 24.824218h-44.703125v84.511719h117.542969c-6.035157-11.527343-9.472657-24.621093-9.472657-38.511719.003907-45.949218 37.386719-83.332031 83.335938-83.332031zm0 0" fill="#ffcd00"/><path d="m394.667969 467.335938v-30h-138.667969l-10.667969 15 10.667969 15zm0 0" fill="#c5d3dd"/><path d="m117.332031 437.335938h138.667969v30h-138.667969zm0 0" fill="#d9e7ec"/><path d="m512 392.667969v-115.332031h-256l-21.332031 68.332031 21.332031 47zm0 0" fill="#c5d3dd"/><path d="m0 277.335938h256v115.332031h-256zm0 0" fill="#d9e7ec"/></svg>